<svg xmlns="http://www.w3.org/2000/svg" width="600" height="400" viewBox="0 0 600 400"><rect width="100%" height="100%" fill="#DDDDDD"/><path fill="#999999" d="M131.105 217.285h19.94v7.66h-29.22v-49.89h9.28v42.23Zm74.14-17.28q0 5.48-1.81 10.16-1.81 4.67-5.12 8.09-3.32 3.41-7.97 5.33-4.66 1.91-10.35 1.91-5.66 0-10.32-1.91-4.66-1.92-7.99-5.33-3.33-3.42-5.15-8.09-1.83-4.68-1.83-10.16 0-5.49 1.83-10.16 1.82-4.68 5.15-8.09 3.33-3.42 7.99-5.33 4.66-1.92 10.32-1.92 3.79 0 7.14.88 3.34.88 6.14 2.48 2.79 1.61 5.02 3.9 2.22 2.3 3.78 5.13 1.55 2.83 2.36 6.14.81 3.31.81 6.97Zm-9.49 0q0-4.11-1.1-7.37-1.11-3.26-3.14-5.54-2.04-2.27-4.95-3.48-2.92-1.21-6.57-1.21-3.66 0-6.58 1.21-2.91 1.21-4.96 3.48-2.06 2.28-3.16 5.54-1.11 3.26-1.11 7.37 0 4.1 1.11 7.36 1.1 3.26 3.16 5.52 2.05 2.26 4.96 3.47 2.92 1.21 6.58 1.21 3.65 0 6.57-1.21 2.91-1.21 4.95-3.47 2.03-2.26 3.14-5.52 1.1-3.26 1.1-7.36Zm28.15 6.1h15.87l-6.07-16.59q-.45-1.11-.93-2.62-.48-1.52-.97-3.28-.44 1.76-.93 3.29-.48 1.54-.93 2.68l-6.04 16.52Zm12.67-31.05 19.59 49.89h-7.17q-1.21 0-1.97-.6-.76-.61-1.14-1.5l-3.73-10.18h-20.66l-3.73 10.18q-.27.79-1.07 1.44-.79.66-1.96.66h-7.25l19.63-49.89h9.46Zm69.06 24.95q0 5.48-1.82 10.07-1.83 4.59-5.14 7.9-3.32 3.31-7.97 5.14-4.66 1.83-10.35 1.83h-19.01v-49.89h19.01q5.69 0 10.35 1.85 4.65 1.84 7.97 5.14 3.31 3.29 5.14 7.88 1.82 4.59 1.82 10.08Zm-9.52 0q0-4.11-1.08-7.37-1.09-3.26-3.14-5.52-2.06-2.26-4.97-3.47-2.92-1.2-6.57-1.2h-9.7v35.12h9.7q3.65 0 6.57-1.21 2.91-1.21 4.97-3.47 2.05-2.26 3.14-5.52 1.08-3.26 1.08-7.36Zm27.02-24.95v49.89h-9.32v-49.89h9.32Zm45.02 0h8.18v49.89h-4.77q-1.1 0-1.84-.36t-1.43-1.23l-26.05-33.26q.21 2.28.21 4.21v30.64h-8.18v-49.89h4.86q.59 0 1.02.05.43.06.76.21.33.16.64.45.31.29.69.78l26.15 33.39q-.1-1.2-.17-2.38-.07-1.17-.07-2.17v-30.33Zm43.85 24.88h16.56v20.18q-3.8 2.79-8.09 4.09-4.3 1.29-9.2 1.29-6.1 0-11.05-1.9-4.95-1.89-8.46-5.27-3.5-3.39-5.4-8.08-1.89-4.69-1.89-10.24 0-5.63 1.83-10.32 1.82-4.69 5.19-8.07 3.36-3.38 8.16-5.25 4.79-1.86 10.76-1.86 3.04 0 5.68.48 2.64.49 4.9 1.33 2.26.85 4.12 2.05 1.86 1.21 3.41 2.66l-2.65 4.21q-.62 1-1.62 1.23-1 .22-2.18-.51-1.14-.65-2.27-1.31-1.14-.65-2.54-1.13-1.4-.49-3.14-.8-1.74-.31-4.02-.31-3.69 0-6.68 1.24-2.98 1.25-5.08 3.56-2.11 2.31-3.25 5.55-1.14 3.24-1.14 7.25 0 4.27 1.23 7.64 1.22 3.36 3.45 5.69 2.22 2.33 5.36 3.55 3.14 1.23 7.01 1.23 2.76 0 4.93-.59 2.17-.58 4.24-1.58v-9.04h-6.27q-.9 0-1.4-.5-.5-.5-.5-1.23v-5.24Zm22.94 20.32q0-1.07.4-2.04.39-.96 1.08-1.65.69-.69 1.66-1.11.97-.41 2.07-.41 1.1 0 2.05.41.95.42 1.66 1.11.71.69 1.12 1.65.41.97.41 2.04 0 1.1-.41 2.05-.41.95-1.12 1.64-.71.69-1.66 1.09-.95.39-2.05.39-1.1 0-2.07-.39-.97-.4-1.66-1.09-.69-.69-1.08-1.64-.4-.95-.4-2.05Zm16.39 0q0-1.07.39-2.04.4-.96 1.09-1.65.69-.69 1.66-1.11.96-.41 2.07-.41 1.1 0 2.05.41.95.42 1.66 1.11.7.69 1.12 1.65.41.97.41 2.04 0 1.1-.41 2.05-.42.95-1.12 1.64-.71.69-1.66 1.09-.95.39-2.05.39-1.11 0-2.07-.39-.97-.4-1.66-1.09-.69-.69-1.09-1.64-.39-.95-.39-2.05Zm16.39 0q0-1.07.39-2.04.4-.96 1.09-1.65.69-.69 1.66-1.11.96-.41 2.07-.41 1.1 0 2.05.41.95.42 1.65 1.11.71.69 1.13 1.65.41.97.41 2.04 0 1.1-.41 2.05-.42.95-1.13 1.64-.7.69-1.65 1.09-.95.39-2.05.39-1.11 0-2.07-.39-.97-.4-1.66-1.09-.69-.69-1.09-1.64-.39-.95-.39-2.05Z"/></svg>